<svg width="120" height="120" viewBox="0 0 120 120" fill="none" xmlns="http://www.w3.org/2000/svg">
<path d="M90.0005 10.0005V102C90.0005 106.419 86.4187 110 82.0005 110L10.0005 106C5.58221 106 2.00049 102.419 2.00049 98.0005V28.0005H20.0005C24.4188 28.0005 28.0005 24.4188 28.0005 20.0005V2.00049H82.0005C86.4187 2.00049 90.0005 5.58221 90.0005 10.0005Z" fill="#E8EDFC"/>
<path d="M81.9999 2.00049H75.9999C80.4182 2.00049 83.9999 5.58221 83.9999 10.0005V102C83.9999 106.419 80.4182 110 75.9999 110H81.9999C86.4181 110 89.9999 106.419 89.9999 102V10.0005C89.9999 5.58221 86.4181 2.00049 81.9999 2.00049Z" fill="#CAD9FC"/>
<path d="M98.0003 18V106C98.0003 110.418 94.4186 114 90.0004 114H18.0004C13.5821 114 10.0004 110.418 10.0004 106H82.0004C86.4186 106 90.0004 102.418 90.0004 98V10C94.4186 10 98.0003 13.5817 98.0003 18Z" fill="#A4C2F7"/>
<path d="M102.42 118H61.5796C59.5398 118.002 57.825 116.469 57.5996 114.442L49.9996 50H114L106.4 114.442C106.174 116.469 104.459 118.002 102.42 118Z" fill="#E8EDFC"/>
<path d="M108 50L100.4 114.442C100.174 116.469 98.4596 118.002 96.4198 118H102.42C104.46 118.002 106.174 116.469 106.4 114.442L114 50H108Z" fill="#CAD9FC"/>
<path d="M114 40H49.9999C47.7907 40 45.9999 41.7909 45.9999 44V46C45.9999 48.2091 47.7907 50 49.9999 50H114C116.209 50 118 48.2091 118 46V44C118 41.7909 116.209 40 114 40Z" fill="#E8EDFC"/>
<path d="M114 40H108C110.21 40 112 41.7909 112 44V46C112 48.2091 110.21 50 108 50H114C116.21 50 118 48.2091 118 46V44C118 41.7909 116.21 40 114 40Z" fill="#CAD9FC"/>
<path d="M66.0005 30H98.0005C100.21 30 102 31.7909 102 34V40H62.0005V34C62.0005 31.7909 63.7913 30 66.0005 30Z" fill="#A4C2F7"/>
<path d="M98.0005 30H92.0005C94.2096 30 96.0005 31.7909 96.0005 34V40H102V34C102 31.7909 100.21 30 98.0005 30Z" fill="#7FACFA"/>
<path d="M28.0005 2.00049V20.0005C28.0005 24.4188 24.4188 28.0005 20.0005 28.0005H2.00049L28.0005 2.00049Z" fill="#A4C2F7"/>
<path d="M2.00049 98.0005C2.00049 102.419 5.58221 106 10.0005 106C10.0005 110.419 13.5822 114 18.0005 114H24.0005C19.5822 114 16.0005 110.419 16.0005 106C11.5822 106 8.00049 102.419 8.00049 98.0005V28.0005L34.0005 2.00049H28.0005L2.00049 28.0005V98.0005Z" fill="white"/>
<path d="M0 82H4V98H0V82Z" fill="white"/>
<path d="M69.9998 12C71.1043 12 71.9998 11.1046 71.9998 10C71.9998 8.89543 71.1043 8 69.9998 8H57.9998C56.8952 8 55.9998 8.89543 55.9998 10C55.9998 11.1046 56.8952 12 57.9998 12H69.9998Z" fill="#428DFF"/>
<path d="M81.9999 12C83.1044 12 83.9999 11.1046 83.9999 10C83.9999 8.89543 83.1044 8 81.9999 8H77.9999C76.8953 8 75.9999 8.89543 75.9999 10C75.9999 11.1046 76.8953 12 77.9999 12H81.9999Z" fill="#428DFF"/>
<path d="M114 38H104V34C103.989 31.4664 102.389 29.2125 100 28.368V18C99.9914 13.1842 96.5517 9.05854 91.816 8.184C90.9414 3.44829 86.8158 0.00853728 82 0H28C27.4696 0.00011328 26.961 0.210901 26.586 0.586L0.586 26.586C0.210901 26.961 0.00011328 27.4696 0 28V82C0 83.1046 0.89543 84 2 84C3.10457 84 4 83.1046 4 82V30H20C25.5201 29.9934 29.9934 25.5201 30 20V4H82C85.3137 4 88 6.68629 88 10V28H66C62.6863 28 60 30.6863 60 34V38H50C46.6863 38 44 40.6863 44 44V46C44.0091 48.6048 45.7017 50.9047 48.186 51.688L54.358 104H10C6.68629 104 4 101.314 4 98C4 96.8954 3.10457 96 2 96C0.89543 96 0 96.8954 0 98C0.00853728 102.816 3.44829 106.941 8.184 107.816C9.05854 112.552 13.1842 115.991 18 116H55.942C56.7822 118.395 59.0423 119.998 61.58 120H102.42C105.474 120.005 108.041 117.711 108.38 114.676L115.814 51.688C118.298 50.9047 119.991 48.6048 120 46V44C120 40.6863 117.314 38 114 38ZM20 26H6.828L26 6.828V20C26 23.3137 23.3137 26 20 26ZM92 12.368C94.3887 13.2125 95.9895 15.4664 96 18V28H92V12.368ZM64 34C64 32.8954 64.8954 32 66 32H98C99.1045 32 100 32.8954 100 34V38H64V34ZM12.368 108H54.832L55.302 112H18C15.4664 111.989 13.2125 110.389 12.368 108ZM104.4 114.22C104.288 115.233 103.433 115.999 102.414 116H61.58C60.5536 115.999 59.6946 115.221 59.592 114.2L52.25 52H111.75L104.4 114.22ZM116 46C116 47.1046 115.105 48 114 48H50C48.8954 48 48 47.1046 48 46V44C48 42.8954 48.8954 42 50 42H114C115.105 42 116 42.8954 116 44V46Z" fill="#428DFF"/>
<path d="M81.9995 111.999C83.1041 111.999 83.9995 111.104 83.9995 109.999V57.9995C83.9995 56.8949 83.1041 55.9995 81.9995 55.9995C80.8949 55.9995 79.9995 56.8949 79.9995 57.9995V109.999C79.9995 111.104 80.8949 111.999 81.9995 111.999Z" fill="#428DFF"/>
<path d="M69.9998 112C70.0767 112.001 70.1536 111.996 70.2298 111.986C71.3264 111.86 72.1132 110.869 71.9878 109.772L65.9878 57.7723C65.8315 56.7032 64.8542 55.9515 63.7808 56.0747C62.7073 56.198 61.9258 57.1515 62.0158 58.2283L68.0158 110.228C68.1316 111.237 68.9846 111.999 69.9998 112Z" fill="#428DFF"/>
<path d="M93.7716 111.986C93.8473 111.995 93.9234 112 93.9996 112C95.0149 111.998 95.8679 111.236 95.9836 110.228L101.984 58.2279C102.089 57.5063 101.794 56.7845 101.212 56.3442C100.631 55.9038 99.8559 55.8149 99.1899 56.112C98.5239 56.4091 98.0724 57.0452 98.0116 57.7719L92.0116 109.772C91.8863 110.869 92.6743 111.86 93.7716 111.986Z" fill="#428DFF"/>
<path d="M2 91.9995C3.10457 91.9995 4 91.1041 4 89.9995C4 88.8949 3.10457 87.9995 2 87.9995C0.89543 87.9995 0 88.8949 0 89.9995C0 91.1041 0.89543 91.9995 2 91.9995Z" fill="#428DFF"/>
</svg>
